<mxfile host="app.diagrams.net" agent="Mozilla/5.0 (Macintosh; Intel Mac OS X 10_15_7) AppleWebKit/537.36 (KHTML, like Gecko) Chrome/134.0.0.0 Safari/537.36" version="26.1.1">
  <diagram name="Page-1" id="Ie_a2-sc57kRKrSM1Xpx">
    <mxGraphModel dx="1344" dy="701" grid="1" gridSize="10" guides="1" tooltips="1" connect="1" arrows="1" fold="1" page="1" pageScale="1" pageWidth="850" pageHeight="1100" math="0" shadow="0">
      <root>
        <mxCell id="0" />
        <mxCell id="1" parent="0" />
        <mxCell id="A31ABvEfGWIdzAUm42GZ-1" value="System Control Task" style="whiteSpace=wrap;html=1;aspect=fixed;" parent="1" vertex="1">
          <mxGeometry x="390" y="260" width="125" height="125" as="geometry" />
        </mxCell>
        <mxCell id="A31ABvEfGWIdzAUm42GZ-3" value="" style="rounded=1;whiteSpace=wrap;html=1;fillColor=none;" parent="1" vertex="1">
          <mxGeometry x="90" y="80" width="130" height="210" as="geometry" />
        </mxCell>
        <mxCell id="A31ABvEfGWIdzAUm42GZ-4" value="Solar Tracking Task" style="text;html=1;align=center;verticalAlign=middle;resizable=0;points=[];autosize=1;strokeColor=none;fillColor=none;" parent="1" vertex="1">
          <mxGeometry x="90" y="50" width="130" height="30" as="geometry" />
        </mxCell>
        <mxCell id="A31ABvEfGWIdzAUm42GZ-5" value="Stepper Motor Driver" style="rounded=0;whiteSpace=wrap;html=1;" parent="1" vertex="1">
          <mxGeometry x="105" y="110" width="100" height="40" as="geometry" />
        </mxCell>
        <mxCell id="A31ABvEfGWIdzAUm42GZ-6" value="Servo Motor" style="rounded=0;whiteSpace=wrap;html=1;" parent="1" vertex="1">
          <mxGeometry x="105" y="170" width="100" height="40" as="geometry" />
        </mxCell>
        <mxCell id="A31ABvEfGWIdzAUm42GZ-7" value="Solar Cell ADC" style="rounded=0;whiteSpace=wrap;html=1;" parent="1" vertex="1">
          <mxGeometry x="105" y="230" width="100" height="40" as="geometry" />
        </mxCell>
        <mxCell id="A31ABvEfGWIdzAUm42GZ-8" value="" style="rounded=1;whiteSpace=wrap;html=1;fillColor=none;" parent="1" vertex="1">
          <mxGeometry x="280" y="80" width="130" height="100" as="geometry" />
        </mxCell>
        <mxCell id="A31ABvEfGWIdzAUm42GZ-9" value="Temperature &amp;amp;&lt;div&gt;Humidity&amp;nbsp;&lt;span style=&quot;background-color: transparent; color: light-dark(rgb(0, 0, 0), rgb(255, 255, 255));&quot;&gt;Task&lt;/span&gt;&lt;/div&gt;" style="text;html=1;align=center;verticalAlign=middle;resizable=0;points=[];autosize=1;strokeColor=none;fillColor=none;" parent="1" vertex="1">
          <mxGeometry x="295" y="45" width="100" height="40" as="geometry" />
        </mxCell>
        <mxCell id="A31ABvEfGWIdzAUm42GZ-10" value="Temp/Humidity Sensor" style="rounded=0;whiteSpace=wrap;html=1;" parent="1" vertex="1">
          <mxGeometry x="295" y="110" width="100" height="40" as="geometry" />
        </mxCell>
        <mxCell id="A31ABvEfGWIdzAUm42GZ-13" value="" style="rounded=1;whiteSpace=wrap;html=1;fillColor=none;" parent="1" vertex="1">
          <mxGeometry x="470" y="80" width="130" height="100" as="geometry" />
        </mxCell>
        <mxCell id="A31ABvEfGWIdzAUm42GZ-14" value="IMU Task" style="text;html=1;align=center;verticalAlign=middle;resizable=0;points=[];autosize=1;strokeColor=none;fillColor=none;" parent="1" vertex="1">
          <mxGeometry x="500" y="50" width="70" height="30" as="geometry" />
        </mxCell>
        <mxCell id="A31ABvEfGWIdzAUm42GZ-15" value="IMU" style="rounded=0;whiteSpace=wrap;html=1;" parent="1" vertex="1">
          <mxGeometry x="485" y="110" width="100" height="40" as="geometry" />
        </mxCell>
        <mxCell id="A31ABvEfGWIdzAUm42GZ-16" value="" style="rounded=1;whiteSpace=wrap;html=1;fillColor=none;" parent="1" vertex="1">
          <mxGeometry x="660" y="80" width="130" height="100" as="geometry" />
        </mxCell>
        <mxCell id="A31ABvEfGWIdzAUm42GZ-17" value="GPS Task" style="text;html=1;align=center;verticalAlign=middle;resizable=0;points=[];autosize=1;strokeColor=none;fillColor=none;" parent="1" vertex="1">
          <mxGeometry x="685" y="50" width="80" height="30" as="geometry" />
        </mxCell>
        <mxCell id="A31ABvEfGWIdzAUm42GZ-18" value="GPS" style="rounded=0;whiteSpace=wrap;html=1;" parent="1" vertex="1">
          <mxGeometry x="675" y="110" width="100" height="40" as="geometry" />
        </mxCell>
        <mxCell id="A31ABvEfGWIdzAUm42GZ-19" value="WiFi Task" style="rounded=1;whiteSpace=wrap;html=1;fillColor=none;" parent="1" vertex="1">
          <mxGeometry x="260" y="450" width="130" height="100" as="geometry" />
        </mxCell>
        <mxCell id="A31ABvEfGWIdzAUm42GZ-22" value="CLI Task" style="rounded=1;whiteSpace=wrap;html=1;fillColor=none;" parent="1" vertex="1">
          <mxGeometry x="520" y="450" width="130" height="100" as="geometry" />
        </mxCell>
        <mxCell id="A31ABvEfGWIdzAUm42GZ-26" value="" style="endArrow=classic;html=1;rounded=0;exitX=0.5;exitY=1;exitDx=0;exitDy=0;entryX=0.25;entryY=0;entryDx=0;entryDy=0;" parent="1" source="A31ABvEfGWIdzAUm42GZ-8" target="A31ABvEfGWIdzAUm42GZ-1" edge="1">
          <mxGeometry width="50" height="50" relative="1" as="geometry">
            <mxPoint x="400" y="320" as="sourcePoint" />
            <mxPoint x="450" y="270" as="targetPoint" />
          </mxGeometry>
        </mxCell>
        <mxCell id="A31ABvEfGWIdzAUm42GZ-27" value="- Temperature&lt;div&gt;- Humidity&lt;/div&gt;" style="edgeLabel;html=1;align=center;verticalAlign=middle;resizable=0;points=[];" parent="A31ABvEfGWIdzAUm42GZ-26" vertex="1" connectable="0">
          <mxGeometry x="-0.142" y="-1" relative="1" as="geometry">
            <mxPoint as="offset" />
          </mxGeometry>
        </mxCell>
        <mxCell id="A31ABvEfGWIdzAUm42GZ-28" value="" style="endArrow=classic;html=1;rounded=0;entryX=0.75;entryY=0;entryDx=0;entryDy=0;exitX=0.5;exitY=1;exitDx=0;exitDy=0;" parent="1" source="A31ABvEfGWIdzAUm42GZ-13" target="A31ABvEfGWIdzAUm42GZ-1" edge="1">
          <mxGeometry width="50" height="50" relative="1" as="geometry">
            <mxPoint x="400" y="320" as="sourcePoint" />
            <mxPoint x="450" y="270" as="targetPoint" />
          </mxGeometry>
        </mxCell>
        <mxCell id="A31ABvEfGWIdzAUm42GZ-29" value="- Tilt status&lt;div&gt;- Euler angles, roll&lt;/div&gt;&lt;div&gt;and pitch (maybe)&lt;/div&gt;" style="edgeLabel;html=1;align=center;verticalAlign=middle;resizable=0;points=[];" parent="A31ABvEfGWIdzAUm42GZ-28" vertex="1" connectable="0">
          <mxGeometry x="-0.0589" y="3" relative="1" as="geometry">
            <mxPoint y="-1" as="offset" />
          </mxGeometry>
        </mxCell>
        <mxCell id="A31ABvEfGWIdzAUm42GZ-30" value="" style="endArrow=classic;html=1;rounded=0;exitX=0.5;exitY=1;exitDx=0;exitDy=0;entryX=1;entryY=0.5;entryDx=0;entryDy=0;" parent="1" source="A31ABvEfGWIdzAUm42GZ-16" target="A31ABvEfGWIdzAUm42GZ-1" edge="1">
          <mxGeometry width="50" height="50" relative="1" as="geometry">
            <mxPoint x="400" y="320" as="sourcePoint" />
            <mxPoint x="700" y="300" as="targetPoint" />
          </mxGeometry>
        </mxCell>
        <mxCell id="A31ABvEfGWIdzAUm42GZ-32" value="- Latitude&lt;div&gt;- Longitude&lt;/div&gt;" style="edgeLabel;html=1;align=center;verticalAlign=middle;resizable=0;points=[];" parent="A31ABvEfGWIdzAUm42GZ-30" vertex="1" connectable="0">
          <mxGeometry x="-0.0032" y="1" relative="1" as="geometry">
            <mxPoint as="offset" />
          </mxGeometry>
        </mxCell>
        <mxCell id="A31ABvEfGWIdzAUm42GZ-33" value="" style="endArrow=classic;html=1;rounded=0;exitX=1;exitY=0.5;exitDx=0;exitDy=0;entryX=0;entryY=0.5;entryDx=0;entryDy=0;" parent="1" source="A31ABvEfGWIdzAUm42GZ-3" target="A31ABvEfGWIdzAUm42GZ-1" edge="1">
          <mxGeometry width="50" height="50" relative="1" as="geometry">
            <mxPoint x="400" y="320" as="sourcePoint" />
            <mxPoint x="450" y="270" as="targetPoint" />
          </mxGeometry>
        </mxCell>
        <mxCell id="A31ABvEfGWIdzAUm42GZ-34" value="- Solar Tracking status&lt;div&gt;- Battery charge status&lt;/div&gt;&lt;div&gt;- Motor position status&lt;/div&gt;" style="edgeLabel;html=1;align=center;verticalAlign=middle;resizable=0;points=[];" parent="A31ABvEfGWIdzAUm42GZ-33" vertex="1" connectable="0">
          <mxGeometry x="-0.0213" y="-3" relative="1" as="geometry">
            <mxPoint as="offset" />
          </mxGeometry>
        </mxCell>
        <mxCell id="A31ABvEfGWIdzAUm42GZ-35" value="" style="endArrow=classic;html=1;rounded=0;exitX=0.25;exitY=0;exitDx=0;exitDy=0;entryX=0;entryY=1;entryDx=0;entryDy=0;" parent="1" source="A31ABvEfGWIdzAUm42GZ-19" target="A31ABvEfGWIdzAUm42GZ-1" edge="1">
          <mxGeometry width="50" height="50" relative="1" as="geometry">
            <mxPoint x="400" y="320" as="sourcePoint" />
            <mxPoint x="450" y="270" as="targetPoint" />
          </mxGeometry>
        </mxCell>
        <mxCell id="A31ABvEfGWIdzAUm42GZ-37" value="User Control&lt;div&gt;Info&lt;/div&gt;" style="edgeLabel;html=1;align=center;verticalAlign=middle;resizable=0;points=[];" parent="A31ABvEfGWIdzAUm42GZ-35" vertex="1" connectable="0">
          <mxGeometry x="0.0675" y="3" relative="1" as="geometry">
            <mxPoint as="offset" />
          </mxGeometry>
        </mxCell>
        <mxCell id="A31ABvEfGWIdzAUm42GZ-36" value="" style="endArrow=classic;html=1;rounded=0;entryX=0.5;entryY=0;entryDx=0;entryDy=0;exitX=0.25;exitY=1;exitDx=0;exitDy=0;" parent="1" edge="1">
          <mxGeometry width="50" height="50" relative="1" as="geometry">
            <mxPoint x="446.25" y="385" as="sourcePoint" />
            <mxPoint x="350" y="450" as="targetPoint" />
          </mxGeometry>
        </mxCell>
        <mxCell id="A31ABvEfGWIdzAUm42GZ-38" value="System&lt;div&gt;Info&lt;/div&gt;" style="edgeLabel;html=1;align=center;verticalAlign=middle;resizable=0;points=[];" parent="A31ABvEfGWIdzAUm42GZ-36" vertex="1" connectable="0">
          <mxGeometry x="-0.0744" y="2" relative="1" as="geometry">
            <mxPoint as="offset" />
          </mxGeometry>
        </mxCell>
        <mxCell id="nh9NJUfpQ5GKdOAc1GB4-1" value="" style="endArrow=classic;html=1;rounded=0;exitX=0.25;exitY=0;exitDx=0;exitDy=0;entryX=0.918;entryY=0.012;entryDx=0;entryDy=0;entryPerimeter=0;" edge="1" parent="1" source="A31ABvEfGWIdzAUm42GZ-16" target="A31ABvEfGWIdzAUm42GZ-3">
          <mxGeometry width="50" height="50" relative="1" as="geometry">
            <mxPoint x="400" y="280" as="sourcePoint" />
            <mxPoint x="450" y="230" as="targetPoint" />
            <Array as="points">
              <mxPoint x="693" y="30" />
              <mxPoint x="210" y="30" />
            </Array>
          </mxGeometry>
        </mxCell>
        <mxCell id="nh9NJUfpQ5GKdOAc1GB4-2" value="QUEUE (or semaphore): Distance from last trigger is &amp;gt; 10m" style="edgeLabel;html=1;align=center;verticalAlign=middle;resizable=0;points=[];" vertex="1" connectable="0" parent="nh9NJUfpQ5GKdOAc1GB4-1">
          <mxGeometry x="0.0027" relative="1" as="geometry">
            <mxPoint as="offset" />
          </mxGeometry>
        </mxCell>
        <mxCell id="nh9NJUfpQ5GKdOAc1GB4-7" value="" style="endArrow=classic;html=1;rounded=0;entryX=0.597;entryY=0.997;entryDx=0;entryDy=0;entryPerimeter=0;exitX=0.25;exitY=0;exitDx=0;exitDy=0;" edge="1" parent="1" source="A31ABvEfGWIdzAUm42GZ-22" target="A31ABvEfGWIdzAUm42GZ-1">
          <mxGeometry width="50" height="50" relative="1" as="geometry">
            <mxPoint x="410" y="400" as="sourcePoint" />
            <mxPoint x="460" y="350" as="targetPoint" />
          </mxGeometry>
        </mxCell>
        <mxCell id="nh9NJUfpQ5GKdOAc1GB4-10" value="Command&lt;div&gt;info&lt;/div&gt;" style="edgeLabel;html=1;align=center;verticalAlign=middle;resizable=0;points=[];" vertex="1" connectable="0" parent="nh9NJUfpQ5GKdOAc1GB4-7">
          <mxGeometry x="0.2951" relative="1" as="geometry">
            <mxPoint x="4" y="12" as="offset" />
          </mxGeometry>
        </mxCell>
        <mxCell id="nh9NJUfpQ5GKdOAc1GB4-8" value="" style="endArrow=classic;html=1;rounded=0;entryX=0.666;entryY=-0.002;entryDx=0;entryDy=0;exitX=1;exitY=1;exitDx=0;exitDy=0;entryPerimeter=0;" edge="1" parent="1" source="A31ABvEfGWIdzAUm42GZ-1" target="A31ABvEfGWIdzAUm42GZ-22">
          <mxGeometry width="50" height="50" relative="1" as="geometry">
            <mxPoint x="410" y="400" as="sourcePoint" />
            <mxPoint x="460" y="350" as="targetPoint" />
          </mxGeometry>
        </mxCell>
        <mxCell id="nh9NJUfpQ5GKdOAc1GB4-9" value="Command&lt;div&gt;response&lt;/div&gt;" style="edgeLabel;html=1;align=center;verticalAlign=middle;resizable=0;points=[];" vertex="1" connectable="0" parent="nh9NJUfpQ5GKdOAc1GB4-8">
          <mxGeometry x="-0.3193" y="-1" relative="1" as="geometry">
            <mxPoint x="14" as="offset" />
          </mxGeometry>
        </mxCell>
      </root>
    </mxGraphModel>
  </diagram>
</mxfile>
